:SAMPLES-PER-SECOND 30
:FRAME-RANGE 1-3358
:FULLY-SPECIFIED
:DEGREES
2834
root  2.60697 39.573 38.0502 -175.615 58.5972 179.373
RightUpLeg  -4.56755 -9.574 -9.75725
RightLeg  9.45566 -16.1525 -0.950552
RightFoot  -5.74259 -0.678385 13.0184
RightToes  -1.11029e-010 1.2921e-014 -6.02303e-014
Spine  -3.42639 -3.35207 0.40602
Spine1  4.26228 -3.67954 0.804976
HEad  7.3062 26.214 1.60379
LeftShoulder1  1.26675 -3.06611 -13.1143
LeftArm  5.14885 -15.563 -46.3902
LeftForeArm  7.50441 -19.5309 -5.70588
LeftHand  -0.165959 4.03666 13.3067
RightShoulder  0.850284 1.42223 10.7041
RightArm  -52.9906 9.73914 2.1901
RightForeArm  29.852 18.0441 0.585365
RightHand  -0.349827 -3.30338 -19.009
LeftUpLeg  -11.7815 4.87784 9.87226
LeftLeg  1.99819 -2.90077 3.39431
LeftFoot  3.83262 1.52939 -11.6267
LeftToes  -1.90334e-010 -8.83595e-011 4.99953e-011
2835
root  2.94694 39.6008 38.361 -174.558 57.5038 -179.41
RightUpLeg  -3.36172 -8.70881 -8.72744
RightLeg  8.1549 -17.922 0.00191867
RightFoot  -6.07925 -0.641025 12.9933
RightToes  -1.11029e-010 1.2921e-014 -6.02303e-014
Spine  -4.78969 -3.41575 0.652591
Spine1  4.86853 -3.76345 0.892246
HEad  8.97916 31.3334 1.30279
LeftShoulder1  1.05253 -1.81624 -13.8469
LeftArm  4.63377 -11.781 -45.9478
LeftForeArm  5.15608 -20.6721 -5.26606
LeftHand  -0.156381 4.08803 12.9378
RightShoulder  0.699256 0.399074 11.6125
RightArm  -51.8939 5.16227 2.88221
RightForeArm  27.3245 17.0607 -0.139257
RightHand  -0.340677 -3.27727 -18.2647
LeftUpLeg  -10.1769 7.03851 11.7742
LeftLeg  -1.08066 -4.62087 2.1853
LeftFoot  4.20535 1.8948 -14.0115
LeftToes  -1.90334e-010 -8.83595e-011 4.99953e-011
2836
root  3.12767 39.5361 38.6227 -174.365 57.1207 -178.261
RightUpLeg  -2.94951 -8.91742 -7.8368
RightLeg  9.38003 -17.9806 0.0402023
RightFoot  -6.91237 -0.520499 12.1962
RightToes  -1.11029e-010 1.2921e-014 -6.02303e-014
Spine  -4.36371 -3.2006 1.31935
Spine1  4.90559 -3.52026 0.758856
HEad  9.53199 35.3504 0.335227
LeftShoulder1  0.869467 -0.636628 -15.4927
LeftArm  3.05206 -8.55102 -44.865
LeftForeArm  4.41849 -20.3542 -5.38889
LeftHand  -0.149456 4.16131 13.0399
RightShoulder  0.603089 -0.294628 12.8132
RightArm  -49.3766 0.731925 3.69214
RightForeArm  22.2735 15.1261 -1.34857
RightHand  -0.274941 -3.77518 -19.1261
LeftUpLeg  -9.35325 8.32956 13.3261
LeftLeg  -0.786529 -3.41094 1.8096
LeftFoot  4.0982 2.1433 -15.9099
LeftToes  -1.90334e-010 -8.83595e-011 4.99953e-011
2837
root  3.24724 39.4723 38.8031 -174.327 57.0001 -176.887
RightUpLeg  -2.27551 -8.65415 -6.66103
RightLeg  10.5311 -18.3535 -0.604231
RightFoot  -7.49428 -0.449151 11.8112
RightToes  -1.11029e-010 1.2921e-014 -6.02303e-014
Spine  -3.82284 -3.09491 2.14932
Spine1  5.5661 -3.42717 0.725959
HEad  8.78834 38.5933 -1.70429
LeftShoulder1  0.693142 0.389824 -17.3583
LeftArm  0.30427 -5.06394 -43.6011
LeftForeArm  5.04342 -18.5668 -6.08382
LeftHand  -0.139287 4.24809 12.9617
RightShoulder  0.59177 -0.525938 14.1788
RightArm  -45.483 -2.95754 5.11173
RightForeArm  16.1075 11.7177 -2.94331
RightHand  -0.20533 -4.28534 -20.6495
LeftUpLeg  -8.5666 8.93529 14.5589
LeftLeg  -0.397101 -2.57439 2.03939
LeftFoot  5.76399 2.37421 -15.9349
LeftToes  -1.90334e-010 -8.83595e-011 4.99953e-011
2838
root  3.38337 39.3966 38.9426 -174.078 57.1988 -175.57
RightUpLeg  -1.73382 -9.01981 -5.8013
RightLeg  11.4815 -17.6637 -0.739618
RightFoot  -8.21566 -0.370672 11.4952
RightToes  -1.11029e-010 1.2921e-014 -6.02303e-014
Spine  -3.89876 -2.97875 2.48899
Spine1  6.57267 -3.45788 1.28295
HEad  7.76219 41.3859 -4.28777
LeftShoulder1  0.54722 1.11242 -18.6324
LeftArm  -5.95337 -1.33322 -43.0924
LeftForeArm  8.94423 -13.6507 -7.87177
LeftHand  -0.125829 4.37497 12.999
RightShoulder  0.573655 -0.768018 15.5954
RightArm  -42.06 -5.83963 7.20246
RightForeArm  11.4691 7.25017 -3.68664
RightHand  -0.10656 -4.85529 -21.2114
LeftUpLeg  -8.41858 8.91525 15.4258
LeftLeg  1.18606 -2.92955 2.69197
LeftFoot  5.48204 2.28842 -15.6209
LeftToes  -1.90334e-010 -8.83595e-011 4.99953e-011
2839
root  3.54158 39.3417 39.0535 -174.091 57.5954 -174.95
RightUpLeg  -1.51478 -9.20433 -5.31068
RightLeg  12.3697 -17.0317 -0.892054
RightFoot  -8.82369 -0.304406 11.082
RightToes  -1.11029e-010 1.2921e-014 -6.02303e-014
Spine  -4.0618 -2.85102 2.50642
Spine1  7.02395 -3.42274 1.78144
HEad  7.87097 44.016 -6.27387
LeftShoulder1  0.377467 1.81469 -19.0315
LeftArm  -10.4698 2.3847 -43.3399
LeftForeArm  11.2874 -6.44299 -9.12187
LeftHand  -0.0854457 4.72646 12.5488
RightShoulder  0.553134 -1.0767 17.9667
RightArm  -37.6639 -8.11545 9.09137
RightForeArm  7.84827 1.8291 -3.44914
RightHand  -0.0106855 -5.38824 -19.8647
LeftUpLeg  -8.15777 8.89982 16.0844
LeftLeg  2.30087 -2.89317 2.89621
LeftFoot  4.94545 2.22634 -15.6877
LeftToes  -1.90334e-010 -8.83595e-011 4.99953e-011
2840
root  3.70906 39.3259 39.1117 -174.013 58.2519 -174.83
RightUpLeg  -1.57662 -9.02105 -5.06322
RightLeg  12.6873 -16.6142 -0.985149
RightFoot  -9.1537 -0.272453 10.9693
RightToes  -1.11029e-010 1.2921e-014 -6.02303e-014
Spine  -4.78062 -2.77293 2.68621
Spine1  7.43841 -3.32143 1.69327
HEad  8.26065 46.7236 -7.85025
LeftShoulder1  0.253654 2.31823 -19.4443
LeftArm  -9.46683 6.25037 -43.6737
LeftForeArm  8.14662 0.842659 -9.35441
LeftHand  -0.0404287 5.14447 11.4499
RightShoulder  0.501256 -1.4342 20.0267
RightArm  -33.8957 -10.5039 12.354
RightForeArm  7.49045 -3.53149 -2.94728
RightHand  -0.0014381 -5.47086 -17.032
LeftUpLeg  -7.61196 9.57077 16.671
LeftLeg  2.23711 -2.93475 2.44478
LeftFoot  4.71189 2.23566 -15.9713
LeftToes  -1.90334e-010 -8.83595e-011 4.99953e-011
2841
root  3.83966 39.3239 39.121 -173.973 58.8458 -174.949
RightUpLeg  -1.71976 -9.34616 -5.11599
RightLeg  12.8219 -15.7427 -0.874553
RightFoot  -9.39339 -0.250029 10.9091
RightToes  -1.11029e-010 1.2921e-014 -6.02303e-014
Spine  -5.45032 -2.82935 2.81409
Spine1  7.86411 -3.38353 1.58342
HEad  7.5196 49.2642 -10.5468
LeftShoulder1  0.141551 2.78707 -21.214
LeftArm  -7.6408 9.74113 -42.6609
LeftForeArm  6.70076 7.54738 -10.1097
LeftHand  0.0230788 5.91724 9.69703
RightShoulder  0.396065 -1.91399 21.6632
RightArm  -30.9704 -13.0526 16.7455
RightForeArm  7.52191 -5.55086 -1.76613
RightHand  0.0454831 -5.8692 -14.9769
LeftUpLeg  -7.19891 9.71925 16.7744
LeftLeg  1.97661 -2.48157 2.46078
LeftFoot  4.61093 2.25247 -16.1861
LeftToes  -1.90334e-010 -8.83595e-011 4.99953e-011
2842
root  3.92925 39.3315 39.0941 -173.945 59.1249 -174.988
RightUpLeg  -1.69954 -8.96772 -4.98896
RightLeg  12.7794 -15.897 -1.0959
RightFoot  -9.35611 -0.252911 10.8849
RightToes  -1.11029e-010 1.2921e-014 -6.02303e-014
Spine  -5.77321 -2.95718 2.88587
Spine1  8.18344 -3.57268 1.73439
HEad  5.5046 50.8988 -13.9118
LeftShoulder1  -0.044538 3.45685 -22.9726
LeftArm  -7.91254 12.9495 -42.1063
LeftForeArm  10.776 7.70397 -10.9858
LeftHand  0.0784047 6.78007 8.68163
RightShoulder  0.281172 -2.37772 23.3281
RightArm  -28.3726 -15.4291 21.1984
RightForeArm  7.29768 -5.83065 -0.152134
RightHand  0.0789483 -6.29834 -12.6685
LeftUpLeg  -6.9209 9.4347 16.6661
LeftLeg  1.79331 -1.93036 2.79883
LeftFoot  4.55495 2.25732 -16.2748
LeftToes  -1.90334e-010 -8.83595e-011 4.99953e-011
2843
root  3.97959 39.3285 39.0625 -173.629 59.1032 -174.738
RightUpLeg  -1.60472 -8.51957 -4.81753
RightLeg  12.5595 -16.3519 -1.07647
RightFoot  -9.31209 -0.254327 10.9169
RightToes  -1.11029e-010 1.2921e-014 -6.02303e-014
Spine  -5.81224 -3.0182 2.73273
Spine1  8.24276 -3.80107 2.42282
HEad  3.46072 51.4848 -16.6508
LeftShoulder1  -0.319289 4.36592 -23.9949
LeftArm  -8.69307 16.7701 -42.7256
LeftForeArm  11.8282 7.74776 -11.249
LeftHand  0.141549 7.6585 8.71951
RightShoulder  0.146877 -2.86268 25.4442
RightArm  -27.1704 -17.7637 25.2169
RightForeArm  6.17603 -5.97961 0.751093
RightHand  0.0490565 -6.20955 -10.1759
LeftUpLeg  -7.0981 9.39853 16.8
LeftLeg  2.11859 -1.92085 2.81507
LeftFoot  4.3275 2.23151 -16.317
LeftToes  -1.90334e-010 -8.83595e-011 4.99953e-011
2844
root  3.97517 39.3189 39.03 -173.348 59.188 -174.573
RightUpLeg  -1.75953 -8.56465 -4.83486
RightLeg  12.5947 -16.2567 -0.957294
RightFoot  -9.29171 -0.254594 10.9674
RightToes  -1.11029e-010 1.2921e-014 -6.02303e-014
Spine  -5.5207 -2.93163 2.69805
Spine1  8.03495 -3.82554 2.9227
HEad  1.78557 51.4232 -18.5999
LeftShoulder1  -0.705741 5.58903 -24.834
LeftArm  -9.04972 21.0852 -43.1847
LeftForeArm  8.53235 7.74817 -11.3136
LeftHand  0.133887 7.68413 8.27436
RightShoulder  0.0311012 -3.23337 27.4202
RightArm  -26.4065 -20.2964 29.3651
RightForeArm  1.96714 -6.07521 1.51618
RightHand  0.115444 -7.19339 -9.20782
LeftUpLeg  -7.48769 9.40159 16.8997
LeftLeg  2.75117 -1.84219 2.66895
LeftFoot  4.01469 2.16471 -16.1488
LeftToes  -1.90334e-010 -8.83595e-011 4.99953e-011
